<?xml version="1.0" encoding="UTF-8" standalone="no"?>
<!-- Created with Inkscape (http://www.inkscape.org/) -->

<svg
   xmlns:dc="http://purl.org/dc/elements/1.1/"
   xmlns:cc="http://creativecommons.org/ns#"
   xmlns:rdf="http://www.w3.org/1999/02/22-rdf-syntax-ns#"
   xmlns:svg="http://www.w3.org/2000/svg"
   xmlns="http://www.w3.org/2000/svg"
   xmlns:sodipodi="http://sodipodi.sourceforge.net/DTD/sodipodi-0.dtd"
   xmlns:inkscape="http://www.inkscape.org/namespaces/inkscape"
   width="134.56261mm"
   height="154.34251mm"
   viewBox="0 0 134.56261 154.34251"
   version="1.1"
   id="svg8"
   inkscape:version="0.92.4 (unknown)"
   sodipodi:docname="default.svg">
  <defs
     id="defs2" />
  <sodipodi:namedview
     id="base"
     pagecolor="#ffffff"
     bordercolor="#666666"
     borderopacity="1.0"
     inkscape:pageopacity="0.0"
     inkscape:pageshadow="2"
     inkscape:zoom="1.33"
     inkscape:cx="636.86854"
     inkscape:cy="287.59391"
     inkscape:document-units="mm"
     inkscape:current-layer="layer1"
     showgrid="false"
     fit-margin-top="0"
     fit-margin-left="0"
     fit-margin-right="0"
     fit-margin-bottom="0"
     inkscape:window-width="1920"
     inkscape:window-height="1010"
     inkscape:window-x="0"
     inkscape:window-y="33"
     inkscape:window-maximized="1" />
  <metadata
     id="metadata5">
    <rdf:RDF>
      <cc:Work
         rdf:about="">
        <dc:format>image/svg+xml</dc:format>
        <dc:type
           rdf:resource="http://purl.org/dc/dcmitype/StillImage" />
        <dc:title></dc:title>
      </cc:Work>
    </rdf:RDF>
  </metadata>
  <g
     inkscape:label="Layer 1"
     inkscape:groupmode="layer"
     id="layer1"
     transform="translate(-3.1131779,-2.5549509)">
    <path
       inkscape:connector-curvature="0"
       id="path89"
       d="m 55.605154,157.33293 c -3.17112,-0.46678 -7.13051,-2.26415 -18.52084,-8.40758 -8.59063,-4.6334 -13.59009,-7.70164 -18.52083,-11.36652 -1.60073,-1.18977 -3.52477,-2.60599 -4.27564,-3.14715 -1.81854,-1.31062 -4.01905,-3.72628 -4.93276,-5.41502 -0.79949,-1.47763 -1.78307,-5.02667 -2.41881,-8.72767 -0.21817,-1.2701 -0.5826,-5.94069 -0.80985,-10.37907 -0.80808,-15.782834 -0.95553,-17.354794 -2.28321,-24.341664 -0.97129,-5.11136 -1.08557,-6.66659 -0.76428,-10.40109 0.16512,-1.91924 0.41074,-5.09989 0.54582,-7.0681 0.28759,-4.190513 0.80667,-6.404551 2.5141,-10.723398 1.4941,-3.779266 2.48977,-5.402514 4.56824,-7.447656 2.03242,-1.999829 2.23304,-2.33861 3.50371,-5.916657 3.5697,-10.05181 8.39927,-17.60196 15.61128,-24.405394 7.23057,-6.820946 14.66773,-10.5291942 28.75029,-14.3352102 6.44961,-1.743104 9.78073,-2.321934 12.4041,-2.155396 2.51026,0.159357 8.10899,1.269888 10.99509,2.180922 1.11361,0.351525 3.2336,0.943977 4.71109,1.316559 6.85162,1.727787 14.041916,5.1570662 19.632436,9.3633182 4.28094,3.220944 10.3125,9.655202 13.10565,13.980674 2.77416,4.29604 5.66879,10.356501 7.1002,14.865596 0.71882,2.264349 1.28665,3.192381 2.91403,4.7625 2.1807,2.103972 3.66329,4.541441 5.14574,8.459902 1.45465,3.844988 2.11792,6.634921 2.12187,8.9253 10e-4,0.84288 0.17773,3.08032 0.39171,4.97209 0.58038,5.13082 0.51419,8.42181 -0.24743,12.30313 -1.26614,6.45233 -1.74244,10.53897 -2.1313,18.286404 -0.80639,16.0657 -0.99261,17.87508 -2.40235,23.34276 -1.03682,4.02127 -3.08807,6.40592 -9.5039,11.04864 -7.94185,5.74701 -16.1329,10.52813 -30.427076,17.76032 -5.58903,2.82779 -4.44452,2.68071 -21.29896,2.73714 -8.07641,0.027 -15.04156,-0.003 -15.47812,-0.0677 z m 29.63333,-1.26187 c 2.06579,-0.33271 2.99463,-0.68623 7.01146,-2.66859 10.554296,-5.20868 21.840236,-11.65382 27.214656,-15.54166 1.65291,-1.19571 3.97463,-2.84964 5.15937,-3.6754 2.54529,-1.77404 5.25079,-4.81454 5.96245,-6.7007 0.27452,-0.7276 0.86578,-3.10885 1.3139,-5.29167 0.82055,-3.99696 0.92176,-5.26391 1.76476,-22.0927 0.0765,-1.527964 0.18994,-3.733674 0.252,-4.901584 0.0621,-1.1679 0.29686,-2.83002 0.5218,-3.6936 0.22493,-0.86359 0.4093,-2.22975 0.4097,-3.03592 5.3e-4,-0.80617 0.35486,-2.89452 0.78769,-4.64077 0.84556,-3.41141 1.08343,-7.76696 0.52751,-9.65904 -0.14936,-0.50836 -0.38288,-2.88882 -0.51894,-5.28992 -0.29274,-5.166348 -0.49475,-6.074726 -2.47636,-11.135287 -1.66373,-4.248785 -2.89878,-6.0917 -5.38288,-8.032223 -1.02613,-0.801587 -1.44728,-1.340901 -1.66443,-2.131447 -0.78898,-2.872226 -3.01192,-8.535392 -4.56518,-11.63026 C 117.31883,27.507734 109.51158,18.942371 101.64265,14.103268 97.221204,11.384246 91.347404,8.9480878 86.030154,7.6279888 c -1.59958,-0.397126 -3.74178,-0.997895 -4.76042,-1.335042 -2.07796,-0.687753 -7.63833,-1.852284 -10.05417,-2.105682 -1.82615,-0.191546 -7.16376,0.708389 -11.1125,1.873595 -1.30969,0.386467 -3.69094,1.038215 -5.29166,1.448328 -7.04572,1.805144 -14.42891,5.1978212 -19.46948,8.9464962 -9.5451,7.098696 -16.78274,17.477125 -20.39271,29.242207 -0.8654,2.820363 -0.91222,2.90105 -2.26692,3.906673 -1.86018,1.380847 -3.85236,4.079055 -4.72127,6.394482 -0.39221,1.045139 -1.05002,2.706153 -1.46179,3.691144 -1.02677,2.45609 -1.5273,5.094745 -1.6997,8.960336 -0.0803,1.79943 -0.26065,3.91864 -0.40088,4.70935 -0.49686,2.80164 -0.31535,7.50451 0.40265,10.43261 0.36168,1.475 0.71261,3.57478 0.77984,4.66619 0.0672,1.0914 0.30689,2.75828 0.5326,3.70417 0.27284,1.14342 0.62973,5.97601 1.06493,14.419784 0.63139,12.25019 0.68569,12.83593 1.53302,16.53796 0.48315,2.11088 1.1461303,4.3909 1.47328,5.06671 0.82151,1.697 3.52663,4.5743 5.59489,5.95099 0.94891,0.63162 2.43966,1.69922 3.31279,2.37243 4.63056,3.57036 12.77788,8.43214 23.6802,14.13077 8.7025,4.54877 9.62909,4.9572 12.24037,5.39546 3.23001,0.54209 26.90526,0.56881 30.22526,0.0341 z m -30.42708,-6.33196 c -1.33147,-0.43122 -6.20469,-2.87924 -12.7,-6.37974 -9.2565,-4.98857 -15.69275,-8.93305 -19.84375,-12.1613 -1.16417,-0.90539 -2.40695,-1.80002 -2.76174,-1.98808 -1.05985,-0.5618 -3.2072,-2.70339 -3.72152,-3.71153 -0.26402,-0.51752 -0.60939,-1.59201 -0.7675,-2.38776 -0.15811,-0.79575 -0.46932,-2.22072 -0.69159,-3.16661 -0.25756,-1.09611 -0.67884,-6.61324 -1.16169,-15.21354 -0.45937,-8.182174 -0.88388,-13.806184 -1.07844,-14.287494 -0.17648,-0.43656 -0.41713,-1.98437 -0.53478,-3.43958 -0.11766,-1.45521 -0.41705,-3.30068 -0.66532,-4.10104 -0.5778,-1.86271 -0.63792,-6.01897 -0.17604,-12.17084 0.42053,-5.60111 0.53449,-6.157889 2.08493,-10.186453 1.74853,-4.543245 2.72945,-5.82439 5.53964,-7.235156 0.90825,-0.455962 1.12451,-0.718251 1.2793,-1.551575 0.10245,-0.551569 0.76874,-2.772516 1.48064,-4.935434 4.78024,-14.523342 14.36086,-25.261424 27.50577,-30.828832 2.3086,-0.977784 8.56628,-2.941712 9.37321,-2.941712 0.18737,0 1.39824,-0.346109 2.69082,-0.769131 3.19842,-1.046749 7.38431,-1.876702 9.46519,-1.876702 2.13038,0 6.57122,0.838521 9.18074,1.733513 1.07825,0.369811 2.75593,0.842069 3.72818,1.049464 4.72283,1.00745 11.2457,3.630619 15.42464,6.203007 5.915536,3.641373 11.798566,9.648959 15.820826,16.155791 2.3498,3.801282 4.87138,9.823862 6.09011,14.545725 l 0.64876,2.513542 1.29063,0.750482 c 2.71532,1.578915 3.62527,2.8037 5.30935,7.146417 1.54281,3.978402 1.68577,4.626563 1.96388,8.904144 0.60472,9.30082 0.60377,10.8338 -0.008,13.27649 -0.31149,1.24337 -0.66962,3.43801 -0.79584,4.87699 -0.12622,1.43897 -0.35796,2.91397 -0.51498,3.27777 -0.15701,0.3638 -0.58912,6.43599 -0.96023,13.493744 -0.73116,13.90529 -0.68087,13.36225 -1.62656,17.56768 -0.9382,4.17216 -1.60033,5.21584 -4.57842,7.21668 -0.95244,0.6399 -3.10093,2.1686 -4.77442,3.39713 -5.03165,3.69377 -14.42097,9.13539 -25.397636,14.7193 l -5.38587,2.73983 -14.83689,0.0538 c -11.54611,0.0419 -15.07164,-0.0223 -15.89523,-0.28898 z m 1.29794,-10.37848 c 0.0902,-0.23497 0.0413,-2.82458 -0.10857,-5.75468 -0.41528,-8.11877 -0.89985,-11.28061 -1.72881,-11.28061 -0.58387,0 -0.60234,0.26985 -0.2263,3.3073 0.55048,4.44647 0.77479,11.517 0.39952,12.59348 -0.26854,0.77033 -0.24849,0.94155 0.14381,1.22841 0.62924,0.46011 1.32423,0.41719 1.52035,-0.0939 z m -34.22422,-29.56218 c -0.32998,-0.32998 -0.3866,1.68578 -0.0769,2.73731 0.14682,0.4985 0.21465,0.27716 0.27532,-0.89846 0.0443,-0.85795 -0.045,-1.68544 -0.19844,-1.83885 z m 96.751306,0.42221 c -0.0571,-0.54571 -0.10379,-0.0992 -0.10379,0.99218 0,1.09141 0.0467,1.5379 0.10379,0.99219 0.0571,-0.5457 0.0571,-1.43867 0,-1.98437 z m -80.890656,-9.17239 c 0,-0.0607 -0.54609,-0.31896 -1.21353,-0.57386 -1.03533,-0.3954 -1.24795,-0.40832 -1.44786,-0.088 -0.186,0.29799 0.0234,0.40778 1.01509,0.53229 0.68719,0.0863 1.33872,0.17558 1.44786,0.19844 0.10914,0.0229 0.19844,-0.008 0.19844,-0.0688 z m 54.80524,-6.148624 c 0.90638,-1.55069 2.75725,-4.24523 4.11303,-5.98785 l 2.46506,-3.1684 v -2.17217 c 0,-1.19469 0.0781,-3.97703 0.1736,-6.18298 l 0.173599,-4.01081 h -1.086199 c -1.04106,0 -5.74562,0.81232 -7.76818,1.3413 -0.71916,0.18809 -0.93955,0.37046 -0.86106,0.71252 0.32492,1.41597 0.90158,12.19737 0.90158,16.85616 0,2.98742 0.0541,5.43168 0.12029,5.43168 0.0662,0 0.86189,-1.26875 1.76828,-2.81945 z m -70.04709,-7.38864 c 0.0883,-0.23019 0.1606,-0.94456 0.1606,-1.5875 0,-1.15258 -0.0126,-1.16899 -0.89773,-1.16899 -0.57454,0 -0.95555,0.15067 -1.05834,0.41852 -0.2157,0.56212 -0.20471,2.3596 0.0158,2.58009 0.34686,0.34687 1.62013,0.17364 1.77968,-0.24212 z m 97.262676,-1.16899 v -1.32291 h -0.91042 c -1.12267,0 -1.29803,0.2612 -1.07231,1.59721 0.16595,0.98227 0.23428,1.04862 1.07995,1.04862 h 0.90278 z m -93.688816,-8.36101 c 0.0583,-0.0534 0.0963,-2.33145 0.0845,-5.06232 -0.0189,-4.37147 0.13668,-6.57466 0.61805,-8.750061 0.0884,-0.399593 0.51964,-0.781333 1.25073,-1.107221 l 1.11579,-0.497366 -1.71979,0.149103 c -0.94589,0.08201 -1.79326,0.223065 -1.88305,0.313468 -0.23159,0.233161 -1.00203,8.850177 -1.10977,12.412287 l -0.0904,2.9875 0.81398,-0.17414 c 0.44769,-0.0958 0.86167,-0.21784 0.91995,-0.27125 z m -2.35493,-7.2494 c 0,-0.29399 -0.17639,-0.52917 -0.39687,-0.52917 -0.22049,0 -0.39688,0.23518 -0.39688,0.52917 0,0.29398 0.17639,0.52916 0.39688,0.52916 0.22048,0 0.39687,-0.23518 0.39687,-0.52916 z m 74.97245,-4.666175 1.227549,-0.168257 V 63.983372 62.069577 L 98.930664,61.90558 c -1.2971,-0.214397 -4.75789,-0.213785 -7.30226,0.0013 l -2.0243,0.171085 v 1.936295 1.936295 l 2.71198,0.08575 c 1.49159,0.04716 3.26091,0.110858 3.93182,0.141547 0.67092,0.03069 1.77224,-0.01992 2.4474,-0.112453 z m -69.85793,-5.784051 0.79781,-0.335455 -1.35328,-0.186124 c -1.6715,-0.229891 -2.44238,-0.0108 -2.44238,0.694137 0,0.480478 0.11135,0.515782 1.10002,0.348745 0.605,-0.102214 1.45903,-0.336802 1.89783,-0.521303 z m 70.29173,-0.499129 c 0,-0.578826 -0.88591,-0.68485 -5.75468,-0.688705 -3.62881,-0.0029 -4.56407,0.06868 -4.56407,0.349165 0,0.19403 0.0794,0.432155 0.17639,0.529167 0.097,0.09701 2.41873,0.17639 5.15938,0.17639 4.06621,0 4.98298,-0.06734 4.98298,-0.366017 z M 72.035774,39.404924 c 0.97536,-0.97536 1.15386,-1.957017 0.58349,-3.20885 -0.60443,-1.326592 -2.8886,-1.900513 -4.12295,-1.035939 -0.32342,0.226533 -0.58986,0.31583 -0.59209,0.198437 -0.002,-0.11739 -0.11947,-0.03485 -0.26053,0.183436 -0.14107,0.218281 -0.24891,1.289843 -0.23965,2.38125 0.009,1.091406 0.0747,1.842018 0.1455,1.668028 0.0918,-0.225758 0.36995,-0.169217 0.9713,0.197448 1.31296,0.800571 2.45528,0.675836 3.51493,-0.38381 z"
       style="fill:#d2d2d2;stroke-width:0.26458332" />
    <path
       inkscape:connector-curvature="0"
       id="path79"
       d="m 56.398774,149.33154 c -1.57912,-0.2826 -2.89178,-0.87804 -9.38267,-4.25607 -11.31287,-5.88753 -18.47407,-10.14336 -23.75258,-14.11594 -1.70778,-1.28527 -3.44313,-2.51168 -3.85634,-2.72536 -0.79207,-0.40959 -2.45406,-2.12233 -2.93935,-3.02909 -0.28932,-0.54061 -0.75165,-2.46925 -1.46825,-6.12493 -0.21917,-1.1181 -0.68634,-7.58628 -1.07015,-14.81665 -0.43561,-8.206301 -0.81156,-13.261511 -1.04285,-14.022921 -0.19892,-0.65484 -0.43342,-2.24486 -0.52112,-3.53338 -0.0877,-1.28851 -0.36615,-2.95538 -0.61879,-3.70416 -0.55875,-1.65599 -0.60843,-6.49224 -0.13631,-13.267674 0.3295,-4.728537 0.44084,-5.225991 2.15343,-9.621247 1.36933,-3.514275 1.93321,-4.32911 3.87353,-5.597355 0.87312,-0.570701 1.79873,-1.189985 2.0569,-1.376183 0.28894,-0.208391 0.76707,-1.457449 1.24367,-3.248962 3.08794,-11.607204 9.94657,-21.907396 18.80761,-28.245 4.67483,-3.343536 12.48094,-6.782395 17.8439,-7.860849 0.87312,-0.175579 2.36617,-0.595215 3.31787,-0.932525 3.08911,-1.094861 7.04923,-1.818875 9.779,-1.78786 1.96413,0.02232 3.26538,0.228807 5.95313,0.944686 1.89177,0.50387 5.22552,1.38902 7.40833,1.966999 9.63443,2.551063 16.808446,6.630261 23.049726,13.106225 6.48803,6.731992 10.20131,13.652172 13.18962,24.580564 0.39555,1.446552 0.47728,1.54231 2.01647,2.362687 2.32097,1.237068 3.19087,2.410841 4.74034,6.396255 1.6794,4.319619 1.74289,4.620056 2.16366,10.238619 0.51758,6.9111 0.45236,10.05648 -0.25596,12.34419 -0.34595,1.11735 -0.58615,2.58457 -0.58615,3.58036 0,0.92797 -0.18353,2.33823 -0.40783,3.13393 -0.27871,0.98867 -0.65437,5.71901 -1.1865,14.940461 -0.49073,8.50406 -0.92809,14.1297 -1.18274,15.21354 -0.22224,0.94589 -0.53577,2.41174 -0.69673,3.25745 -0.37004,1.94429 -1.57245,3.71794 -3.28852,4.85086 -0.71911,0.47474 -1.90278,1.32601 -2.63039,1.89171 -5.99424,4.66045 -17.97525,11.7029 -29.873296,17.55957 l -3.94414,1.94146 -14.04753,0.0375 c -7.72614,0.0206 -14.34518,-0.0158 -14.70899,-0.0809 z m 2.05052,-8.22952 c 1.03348,-1.04396 4.24936,-5.53852 4.49278,-6.27916 0.17814,-0.54202 0.0698,-6.038 -0.3416,-17.33021 -0.33135,-9.09505 -0.73937,-21.715661 -0.9067,-28.045821 -0.16734,-6.33015 -0.41959,-11.79265 -0.56057,-12.13888 -0.29786,-0.73152 -0.20818,-0.89975 0.36285,-0.68063 0.69932,0.26836 0.94768,1.42329 1.24901,5.80805 0.4011,5.83671 1.04872,12.61897 1.25059,13.09688 0.33408,0.79092 1.06459,-6.30721 1.9435,-18.88446 0.47839,-6.845784 0.51267,-8.206374 0.21159,-8.400594 -1.0113,-0.65238 -2.84062,-0.79334 -10.10693,-0.77876 -4.24316,0.009 -9.61983,-0.008 -11.94816,-0.036 -3.67114,-0.0446 -4.40902,0.018 -5.55625,0.4713 l -1.32292,0.52272 -0.0787,1.3462 -0.0787,1.346214 1.46779,0.59573 c 1.41337,0.57364 2.10972,1.32428 0.87248,0.9405 -2.00745,-0.62271 -3.9967,-0.97467 -7.80489,-1.38091 -4.82121,-0.51431 -4.76335,-0.48039 -4.4447,-2.605274 3.55248,-2.31553 5.91308,-1.937733 16.37504,-2.24674 16.93129,1.058728 64.247256,0.31709 66.452156,0.0398 l 1.32291,-0.16635 0.0775,-1.904983 0.0775,-1.904981 -1.00351,-0.25844 c -1.45403,-0.374351 -4.32104,-0.7669 -7.35351,-1.006726 l -2.64583,-0.209252 2.38125,-0.174011 c 1.30969,-0.09571 3.40029,-0.186616 4.64578,-0.202025 1.45843,-0.01805 2.44079,-0.156895 2.75966,-0.390062 0.48264,-0.352914 0.48225,-0.368914 -0.0156,-0.63423 -0.80751,-0.430369 -4.03368,-0.833853 -10.0357,-1.255125 -3.055936,-0.214493 -5.897806,-0.390985 -6.315256,-0.392211 l -0.75901,-0.0021 0.68763,-0.901523 c 1.0781,-1.413457 3.54929,-6.239999 4.2506,-8.301945 1.693239,-4.97831 2.046456,-11.863626 0.84757,-16.521493 -0.36438,-1.415656 -0.8725,-2.852328 -1.12918,-3.192603 -0.67746,-0.898136 -3.31333,-2.94141 -5.37291,-4.164989 -3.41722,-2.030243 -9.95588,-4.293528 -13.11152,-4.538515 l -1.05833,-0.08216 0.0451,3.96875 c 0.0439,3.868671 -0.0178,4.065789 -0.68879,2.20118 -0.17046,-0.473652 -0.65194,-0.884719 -1.44953,-1.237528 -1.33052,-0.588552 -1.37,-0.681297 -1.58226,-3.716587 -0.1387,-1.983389 -0.40025,-2.616805 -0.94221,-2.281853 -0.20854,0.12888 -0.24466,0.96215 -0.1201,2.770589 0.19009,2.759991 -0.0923,3.58937 -0.70226,2.062399 -0.8005,-2.004013 -2.09528,-4.623691 -2.41582,-4.887817 -0.19039,-0.156884 -0.75564,-0.326057 -1.25612,-0.375939 -1.07953,-0.107595 -1.2686,0.297445 -1.31624,2.819723 -0.0679,3.592912 -0.81651,3.808507 -0.81651,0.235137 v -2.542987 l -0.98755,0.185256 c -0.54312,0.101891 -1.44676,0.407146 -2.00807,0.678345 -0.79043,0.381894 -1.12704,0.426597 -1.49271,0.198237 -0.62165,-0.388226 -4.19658,0.300488 -7.85149,1.512595 -5.49573,1.822596 -10.31343,4.741154 -14.33788,8.685877 -2.44396,2.39554 -5.91806,6.820921 -6.66395,8.488661 -0.87218,1.95013 -1.58339,3.817694 -1.58339,4.157814 0,0.183792 1.04557,1.352346 2.32348,2.596785 1.97265,1.920959 2.55527,2.702083 3.8585,5.17303 0.84425,1.600729 2.12859,3.78924 2.85409,4.863359 0.97258,1.439928 1.24135,2.030701 1.02317,2.248958 -0.194,0.194075 -2.81241,0.362352 -7.60339,0.488641 -4.02917,0.106209 -7.70298,0.323154 -8.18908,0.483579 -0.56626,0.186885 -0.93651,0.509772 -1.03514,0.902723 -0.0845,0.336471 -0.44158,0.862214 -0.79363,1.168316 -0.77066,0.670081 -0.81167,1.1655 -0.13678,1.652257 0.45237,0.326263 0.48005,0.544838 0.27353,2.159733 -0.28031,2.191851 -0.34481,2.304311 -1.32162,2.304311 -0.42797,0 -0.77813,0.12609 -0.77813,0.2802 0,0.15411 -0.11907,0.20661 -0.26459,0.11668 -0.14552,-0.0899 -0.26458,-0.5541 -0.26458,-1.03148 0,-0.674743 -0.15095,-0.936742 -0.67808,-1.176917 -0.55302,-0.251971 -0.66282,-0.463368 -0.59531,-1.146175 0.0744,-0.752724 0.20293,-0.866024 1.27339,-1.12258 1.49826,-0.359087 1.63305,-1.042164 0.22878,-1.159414 -0.7897,-0.06593 -1.06609,0.05222 -1.54432,0.660191 -0.55104,0.70054 -0.57766,0.951164 -0.49336,4.644585 0.049,2.14725 0.0125,3.904004 -0.081,3.903884 -0.28072,-2.7e-4 -0.49944,-0.7939 -0.67086,-2.433954 -0.0892,-0.85329 -0.26038,-1.61214 -0.38043,-1.68634 -0.39738,-0.24559 -0.54278,1.12048 -0.23925,2.24772 0.23839,0.88529 0.21278,1.530184 -0.12687,3.195474 -0.50329,2.46758 -0.45054,4.89459 0.10639,4.89459 0.61728,0 1.32273,-1.74307 1.50674,-3.72292 0.14487,-1.5587 0.26698,-1.90996 0.73552,-2.11574 0.50878,-0.22347 0.58678,-0.137 0.82639,0.91617 0.25418,1.11721 0.51138,1.40801 1.52135,1.7201 0.66946,0.20686 0.62733,2.1163 -0.0661,2.9979 -0.62896,0.79959 -0.66803,1.37497 -0.14071,2.07215 0.21365,0.28247 0.39225,0.84101 0.39688,1.24119 0.008,0.70544 -0.0353,0.72761 -1.42804,0.72761 h -1.43645 l -0.31148,1.50037 c -0.17131,0.8252 -0.32778,2.68166 -0.34772,4.12547 -0.0345,2.49828 -0.004,2.65278 0.62977,3.19798 0.66235,0.56973 0.6649,0.5889 0.46308,3.4813 -0.11162,1.59963 -0.12995,4.15858 -0.0408,5.68655 0.21521,3.686321 0.65734,4.556671 1.457,2.868171 l 0.39592,-0.836 0.61087,2.27314 c 0.63051,2.34618 0.62597,2.99241 -0.0431,6.14572 -0.2245,1.05802 -0.32241,1.21696 -0.48897,0.79375 -0.11453,-0.29104 -0.21728,-1.00542 -0.22832,-1.5875 -0.0254,-1.33727 -0.4905,-3.04271 -0.82985,-3.04271 -0.14229,0 -0.37482,0.3054 -0.51674,0.67868 -0.32159,0.84586 -0.29867,6.84443 0.0343,8.97861 0.13622,0.87313 0.275,2.06375 0.3084,2.64583 0.0461,0.80338 0.20114,1.11997 0.64362,1.31417 0.43788,0.19218 0.60245,0.52076 0.66146,1.32064 0.0581,0.78692 0.20566,1.08892 0.5656,1.15725 0.26788,0.0508 0.95993,0.56534 1.53789,1.1433 0.57797,0.57796 1.17319,1.01006 1.32272,0.96022 0.14954,-0.0498 0.61108,-1.1454 1.02564,-2.43455 0.41457,-1.28916 0.85033,-2.43903 0.96836,-2.55528 0.11803,-0.11625 1.10756,-0.0372 2.19897,0.17561 2.38441,0.46499 7.37285,0.52263 9.46684,0.1094 2.58946,-0.51101 4.86105,-1.35346 7.3342,-2.71999 1.30969,-0.72366 2.45129,-1.4254 2.5369,-1.55943 0.25824,-0.40429 0.74444,0.40611 1.40002,2.33361 1.62718,4.78412 2.54537,10.84397 2.54537,16.79888 v 3.97818 l -0.79616,0.30052 c -0.43789,0.16528 -0.75598,0.42283 -0.70688,0.57233 0.15317,0.46632 3.97852,2.48471 4.74419,2.5032 0.40018,0.01 0.93596,-0.19291 1.19062,-0.45015 z m -14.87539,-38.02709 c -2.30259,-1.77529 -5.06372,-3.172687 -7.48283,-3.787031 -1.4723,-0.3739 -2.01477,-0.65589 -2.60028,-1.35172 -0.73617,-0.8749 -0.74848,-0.87839 -2.47583,-0.70253 -2.09486,0.21328 -4.26921,0.81779 -5.45229,1.51582 l -0.87235,0.5147 -0.17466,-1.40294 c -0.0961,-0.77162 -0.13517,-5.03435 -0.0869,-9.47273 0.10433,-9.59611 0.0576,-9.40971 2.29846,-9.17062 2.43368,0.25968 5.56027,1.19038 8.22146,2.44732 1.37208,0.64806 2.57429,1.08647 2.67158,0.97423 0.0973,-0.11223 0.32959,-2.04953 0.51621,-4.3051 0.18663,-2.25557 0.43999,-4.36893 0.56302,-4.69635 0.26844,-0.71438 0.78256,-0.75955 1.50577,-0.13229 0.4611,0.39992 0.62268,1.25622 1.18568,6.28385 0.42047,3.75477 0.56229,5.93374 0.39958,6.13894 -0.17436,0.21989 0.22692,0.99604 1.29956,2.51355 2.23249,3.15842 3.55659,5.32566 4.95529,8.11063 1.19874,2.38684 2.79716,6.702061 2.79716,7.551431 0,0.36235 -0.39419,0.42174 -2.71198,0.40852 l -2.71197,-0.0154 -1.84467,-1.42223 z m 21.953,-40.848691 c -0.29104,-0.121301 -2.07698,-0.386262 -3.96875,-0.588801 -6.28026,-0.672385 -33.52093,-0.328816 -36.18177,0.456338 -0.28169,0.08312 -0.46302,-0.0049 -0.46302,-0.224825 0,-0.241882 0.32821,-0.360338 0.99218,-0.358092 0.91545,0.0031 3.47325,-0.207732 11.44323,-0.943213 3.60047,-0.332259 2.71374,-0.333809 7.40834,0.01296 4.24076,0.313243 18.06303,0.396246 18.34909,0.110186 0.0996,-0.09957 -0.18198,-0.555593 -0.62569,-1.013378 -0.76836,-0.792752 -0.81364,-0.963451 -0.95212,-3.589271 -0.10481,-1.987463 -0.0668,-2.646164 0.13634,-2.36006 0.15494,0.218281 0.36273,0.992188 0.46175,1.719792 0.099,0.727604 0.2371,1.144323 0.30686,0.926042 0.52877,-1.654646 0.44531,-1.60128 1.78848,-1.143614 1.44042,0.490797 1.56713,0.387643 1.81785,-1.479847 0.41912,-3.121832 0.47703,-3.3548 0.6961,-2.800498 0.11503,0.291042 0.21751,1.352683 0.22774,2.359203 0.023,2.263317 0.36896,2.054838 0.54776,-0.330089 l 0.1323,-1.76453 2.11666,-0.160227 c 2.95983,-0.224049 3.78296,-0.445029 3.98092,-1.068726 0.27613,-0.870013 0.4067,-0.415967 0.66475,2.311567 0.13483,1.425114 0.34871,2.694678 0.47529,2.821257 0.18129,0.18129 2.92516,-1.050724 3.45721,-1.55231 0.0613,-0.05781 0.24933,-0.848688 0.41779,-1.757503 l 0.30631,-1.652392 0.19866,1.786755 c 0.10926,0.982716 0.11475,2.970215 0.0122,4.416666 -0.16257,2.293149 -0.26692,2.705508 -0.81489,3.220302 -1.12159,1.053677 -0.84469,1.330584 1.28978,1.28982 1.05503,-0.02016 3.70417,-0.01183 5.88698,0.01849 3.86857,0.05373 3.91198,0.06056 1.71979,0.270587 -1.23692,0.118507 -3.97536,0.33777 -6.08541,0.487249 -2.11006,0.149479 -4.19365,0.347369 -4.63021,0.439756 -1.26143,0.266951 -10.52797,0.384045 -11.1125,0.140422 z M 62.790554,22.24266 c 0,-0.363802 0.0601,-0.51263 0.13345,-0.330729 0.0734,0.181901 0.0734,0.479557 0,0.661458 -0.0734,0.181901 -0.13345,0.03307 -0.13345,-0.330729 z m 23.31358,118.23669 c 2.72387,-1.36435 4.48118,-2.3821 4.34618,-2.5171 -0.057,-0.057 -0.5348,0.0765 -1.06179,0.29672 -1.41683,0.59199 -2.48002,0.51961 -2.86363,-0.19496 -0.20163,-0.37557 -0.36495,-2.39411 -0.44247,-5.46857 -0.1195,-4.73946 -0.13492,-4.84996 -0.56161,-4.02484 -0.2413,0.46663 -0.52148,0.76567 -0.62261,0.66454 -0.18561,-0.18561 -0.16433,-0.52556 0.3623,-5.78936 0.57501,-5.74741 2.06178,-12.7294 3.85393,-18.09839 4.33582,-12.989371 10.3039,-20.605171 19.721406,-25.166221 2.62037,-1.26909 2.49974,-1.01371 2.57517,-5.45186 0.0384,-2.25806 -0.0222,-2.70495 -0.38519,-2.84427 -0.23691,-0.0909 -1.93905,-0.16574 -3.78254,-0.16628 l -3.3518,-0.001 0.8599,-0.52429 c 0.73305,-0.44695 0.85989,-0.67619 0.85989,-1.554114 0,-0.60253 -0.16831,-1.16952 -0.40565,-1.36649 -0.55278,-0.45876 -2.73795,-0.63161 -3.62924,-0.28707 -0.67502,0.26093 -0.72761,0.38959 -0.72761,1.77999 0,1.093064 0.11929,1.585964 0.44069,1.820974 0.54235,0.39658 0.17613,0.47514 -4.938596,1.05933 -1.96453,0.22439 -4.10766,0.58119 -4.7625,0.7929 -0.65485,0.21171 -3.0361,0.80876 -5.29167,1.32679 -2.25557,0.51802 -4.54673,1.06099 -5.09146,1.20659 -1.79896,0.48084 -1.78336,0.37424 -2.06096,14.08144 -0.13617,6.72398 -0.36373,13.713651 -0.5057,15.532651 -0.30622,3.92368 -1.07313,22.91278 -1.07313,26.57145 0,3.07608 0.16443,3.46103 2.72069,6.36918 2.22439,2.53061 2.77434,3.04271 3.26762,3.04271 0.20539,0 1.35306,-0.49068 2.55038,-1.09039 z m 17.667356,-9.69942 c 9.13364,-4.60324 13.48191,-7.7659 13.87485,-10.0917 0.11007,-0.65152 0.32659,-1.07891 0.54659,-1.07891 0.53567,0 0.98433,-0.97623 0.6902,-1.50181 -0.15796,-0.28227 -0.12681,-0.72504 0.0882,-1.25327 0.42071,-1.03369 0.73061,-7.84852 0.42614,-9.37089 -0.50436,-2.52183 -1.26007,-1.72102 -1.54351,1.6356 -0.17379,2.05819 -0.35838,1.90423 -0.96712,-0.80665 -0.56226,-2.5039 -0.53942,-3.57755 0.10155,-4.77345 0.29104,-0.54302 0.52916,-1.17759 0.52916,-1.41015 0,-0.79311 0.36093,-0.78601 0.69719,0.0137 0.18458,0.43899 0.44876,0.79816 0.58707,0.79816 0.59543,0 0.83241,-1.89245 0.83241,-6.647271 v -4.98081 l -0.79375,-0.41046 c -0.98226,-0.50795 -0.99508,-0.59837 -0.0661,-0.46659 1.24757,0.17698 1.63463,-0.37162 1.81751,-2.57612 0.17419,-2.09978 -0.24795,-5.68142 -0.73943,-6.27362 -0.20494,-0.24694 -0.65689,-0.30099 -1.53866,-0.18402 -1.11885,0.14842 -1.26363,0.10766 -1.39444,-0.39254 -0.41336,-1.58068 -0.58508,-0.0372 -0.51926,4.6671 0.0402,2.87418 -0.0193,7.30938 -0.13229,9.856 l -0.20541,4.630201 -1.19062,0.3503 c -1.67616,0.49316 -5.58873,2.117 -6.20177,2.57392 -0.50656,0.37757 -0.50519,0.42213 0.10582,3.42992 0.34048,1.67606 0.57144,3.0839 0.51323,3.12854 -0.0582,0.0446 -0.84619,0.64201 -1.75107,1.3275 -5.15569,3.90566 -8.189046,9.56834 -8.477356,15.82551 -0.17066,3.70384 0.0787,5.77575 0.695089,5.77575 0.250957,0 2.058087,-0.80729 4.015857,-1.79397 z m 0.23084,-31.289697 c 1.07962,-0.285794 1.98923,-0.549114 2.02137,-0.585154 0.30856,-0.34613 6.46858,-11.50894 7.9674,-14.43805 2.62636,-5.13263 2.57531,-5.94708 -0.32545,-5.19153 -1.9235,0.50101 -2.25337,0.79454 -3.36403,2.99336 -1.137,2.25097 -5.05466,9.59906 -8.42888,15.8095 -0.56318,1.03656 -1.02397,1.973181 -1.02397,2.081381 0,0.1082 0.26789,0.11874 0.59532,0.0234 0.32742,-0.0953 1.47863,-0.407137 2.55824,-0.692927 z M 22.532114,79.921829 c 0,-0.14552 -0.42375,-0.26458 -0.94166,-0.26458 -0.5604,0 -0.87545,0.10712 -0.77813,0.26458 0.0899,0.14552 0.51368,0.26459 0.94165,0.26459 0.42798,0 0.77814,-0.11907 0.77814,-0.26459 z m 99.700816,-4.50039 c 0.0749,-1.27652 -0.34138,-4.23108 -0.68302,-4.84815 -0.0671,-0.12123 -0.35863,0.16862 -0.6478,0.64413 -0.43178,0.71 -0.50931,1.22694 -0.4337,2.89188 0.0955,2.10303 0.48821,2.99102 1.25812,2.84484 0.31123,-0.0591 0.44345,-0.45926 0.5064,-1.5327 z m -3.68296,-2.68284 c 0.15976,-0.45828 0.29426,-1.26195 0.29888,-1.78594 0.008,-0.896174 0.0315,-0.922154 0.39787,-0.43776 0.66344,0.87723 1.03899,0.0938 1.14234,-2.382864 0.11672,-2.79737 0.014,-3.12476 -0.85582,-2.728433 -0.70279,0.320215 -0.9437,0.908163 -0.96181,2.347393 -0.01,0.75816 -0.0606,0.8421 -0.28135,0.46302 -0.34085,-0.58521 -1.38836,-0.59942 -1.86464,-0.0253 -0.53783,0.64832 -0.45665,3.808434 0.12047,4.689224 0.65658,1.00207 1.62975,0.93441 2.00406,-0.13935 z m -23.486726,-0.44413 c 0.24839,-0.26358 0.76775,-3.520624 0.60372,-3.786034 -0.0776,-0.12555 -0.96749,-0.22827 -1.97755,-0.22827 h -1.83647 l 0.0152,0.99218 c 0.0246,1.601084 0.3871,3.114604 0.72874,3.042714 0.17289,-0.0364 0.31435,0.0662 0.31435,0.22788 0,0.30758 1.82673,0.0967 2.15197,-0.24847 z m 26.952196,-4.014304 c 0,-0.43657 -0.11906,-0.79375 -0.26458,-0.79375 -0.14552,0 -0.26459,0.35718 -0.26459,0.79375 0,0.43656 0.11907,0.79375 0.26459,0.79375 0.14552,0 0.26458,-0.35719 0.26458,-0.79375 z m -5.46382,-6.490771 c -0.082,-0.21362 -0.25537,-0.388401 -0.38532,-0.388401 -0.27149,0 -0.31923,0.622599 -0.0671,0.874753 0.28225,0.282244 0.61151,-0.07172 0.4524,-0.486352 z"
       style="fill:#2f2f2f;stroke-width:0.26458332"
       sodipodi:nodetypes="ccccccscsccccccssccsssccsccscscccccccccccscccccscccscccccccccccccccccccsccccccccccccsccccscsccccsscsccscscccccsscsscsccccccccsccsccccsccccccccccccscccccccccscccccsccccccccccccccccccccccccscccccscscsscccccccsccccccsccccccccccssccscsscsccscsssscccccsccsccccsscscsccccsccscscscsscccccsccccccsccssccccscscscccsscsscccccccccccccccccccscccsacssssscsccc" />
    <path
       inkscape:connector-curvature="0"
       id="path77"
       d="m 54.947184,148.74174 c -1.85465,-0.44955 -13.92964,-6.7497 -22.03502,-11.49682 -4.6515,-2.72425 -6.93711,-4.21963 -10.66387,-6.97692 -1.4995,-1.10941 -3.21474,-2.37431 -3.81164,-2.81087 -1.72863,-1.26428 -2.55466,-2.48353 -2.96583,-4.3777 -0.20388,-0.93925 -0.55404,-2.55064 -0.77812,-3.58089 -0.25641,-1.17882 -0.66214,-6.67109 -1.09456,-14.81667 -0.42356,-7.978584 -0.82573,-13.450924 -1.04847,-14.266394 -0.19874,-0.72761 -0.44539,-2.443631 -0.54811,-3.813391 -0.10273,-1.36976 -0.33938,-2.85804 -0.5259,-3.30729 -0.69666,-1.67796 -0.94334,-4.64289 -0.65132,-7.82828 0.15342,-1.67349 0.38035,-4.76912 0.50429,-6.87917 0.12394,-2.11005 0.31109,-4.074582 0.41589,-4.365623 2.49545,-6.930644 3.38582,-8.601327 5.14672,-9.657292 2.8104,-1.685316 2.65479,-1.479211 3.59572,-4.7625 2.3885,-8.334388 5.31353,-14.106618 10.26035,-20.247737 6.1556,-7.641724 15.55866,-13.358104 25.84505,-15.711916 1.38245,-0.316343 2.98114,-0.756222 3.55264,-0.97751 1.67962,-0.650354 6.21057,-1.645789 8.35361,-1.835262 2.45776,-0.217298 6.13514,0.365441 10.05417,1.593244 1.52797,0.4787 3.67109,1.077633 4.7625,1.330962 5.90136,1.369776 12.89309,4.595001 17.541796,8.091885 8.76295,6.591723 14.98991,16.115363 18.23204,27.884451 l 0.84667,3.073418 1.55226,0.827349 c 2.41978,1.28973 3.33922,2.545025 4.93922,6.743439 1.49196,3.914902 1.36017,3.132558 2.15764,12.808332 0.37607,4.56293 0.22232,7.39413 -0.52987,9.75685 -0.33791,1.06139 -0.54882,2.43805 -0.55093,3.59597 -0.002,1.03189 -0.18779,2.460641 -0.41314,3.175001 -0.29301,0.92881 -0.62692,5.18061 -1.17213,14.924844 -0.6262,11.19194 -0.86022,13.9999 -1.31006,15.71888 -0.30122,1.15107 -0.54878,2.34169 -0.55015,2.64584 -0.004,0.95441 -1.55453,3.31643 -2.67081,4.06938 -0.5846,0.39432 -2.27609,1.61807 -3.75887,2.71946 -4.50546,3.34657 -8.24309,5.72636 -15.08269,9.60328 -3.016727,1.70999 -14.798356,7.91282 -16.717436,8.80146 -0.98492,0.45608 -2.05852,0.49342 -15.47812,0.53835 -7.93089,0.0266 -14.86247,-0.059 -15.40352,-0.19016 z m 3.07399,-7.5333 c 0.47302,-0.30994 0.78264,-0.34072 1.33083,-0.13229 0.78919,0.30004 5.45699,0.32515 6.50078,0.035 l 0.66146,-0.18389 -1.78779,-23.36274 c -1.68369,-22.002437 -3.02233,-30.354992 -3.49571,-42.082124 -29.69022,-2.020045 -44.45506,-10.699637 4.58498,-8.681546 10.31674,-0.0288 17.55848,-0.233348 24.71789,-0.130645 5.54698,0.085 9.450419,0.24641 9.450419,0.39086 0,0.14945 -1.745629,0.17225 -4.444509,0.0581 -3.86347,-0.16347 -4.55526,-0.13078 -5.29167,0.25003 -0.46593,0.24094 -0.85477,0.58385 -0.86408,0.76202 -0.009,0.17816 -0.002,1.41843 0.0152,2.75615 l 0.0321,2.43222 -1.00738,0.2977 c -0.55407,0.16374 -2.7893,0.73611 -4.96719,1.27195 -3.70142,0.91067 -3.99023,1.02701 -4.42621,1.78292 -0.40815,0.70765 -0.486,1.84791 -0.62324,9.12812 -0.0862,4.575701 -0.32106,11.474611 -0.52181,15.330905 -0.20073,3.8563 -0.57272,12.8726 -0.82663,20.03621 -0.43931,12.3947 -0.43929,13.07163 5.3e-4,13.99391 0.72886,1.52842 4.71363,6.18776 5.44998,6.37257 0.80855,0.20293 7.21521,-2.96276 10.37392,-5.12601 1.16152,-0.79548 3.02606,-1.8378 4.1434,-2.31624 2.542079,-1.08852 7.397616,-3.70251 12.731656,-6.8541 4.79645,-2.83397 7.42384,-5.11873 7.42384,-6.45573 0,-0.56918 0.1963,-0.93295 0.67143,-1.24427 0.52579,-0.34451 0.66784,-0.65241 0.65489,-1.41949 -0.009,-0.53876 0.10896,-1.69393 0.26235,-2.56706 0.15339,-0.87312 0.27353,-4.02828 0.26697,-7.01145 -0.0215,-9.774954 0.27126,-18.082334 0.6526,-18.520834 0.18983,-0.21828 0.42459,-0.99219 0.52168,-1.719801 0.20353,-1.5252 -0.28846,-6.9743 -0.67136,-7.43566 -0.18053,-0.21753 0.1511,-0.71714 1.10755,-1.66858 l 1.36525,-1.35809 -0.20163,-2.83862 c -0.1109,-1.56124 -0.21569,-4.05235 -0.23287,-5.53579 -0.02,-1.72648 -0.14714,-2.81365 -0.35329,-3.02081 -0.36548,-0.36727 -0.3921,-0.31422 -0.81121,1.61694 -0.2276,1.0487 -0.26218,0.83787 -0.29017,-1.76872 -0.0329,-3.064251 -0.20918,-3.927145 -0.95456,-4.672519 -0.55854,-0.558546 -2.14824,-0.576736 -2.45528,-0.0281 -0.19029,0.340043 -0.28168,0.294984 -0.53664,-0.264583 -0.42651,-0.936091 -1.11238,-0.882489 -1.11238,0.08693 0,0.783598 0.58719,1.514203 1.00797,1.254146 0.21721,-0.134241 1.08108,0.08297 2.63005,0.661302 0.79659,0.297419 0.76132,1.170978 -0.0693,1.715188 -0.36551,0.239493 -0.72813,0.688721 -0.80583,0.998286 -0.11776,0.46921 -0.3383,0.56285 -1.32564,0.56285 -1.12817,0 -1.19657,-0.0439 -1.44165,-0.926043 -0.1415,-0.509323 -0.25794,-1.435005 -0.25875,-2.057069 -0.001,-0.967333 -0.0988,-1.16804 -0.67411,-1.386761 -0.60797,-0.231153 -6.11758,-1.042538 -7.21227,-1.062133 -0.39453,-0.0071 -0.38855,-0.04343 0.0489,-0.2975 0.31391,-0.182335 1.13164,-0.224573 2.20957,-0.114136 0.94118,0.09642 2.41973,0.09516 3.28569,-0.0028 1.40454,-0.158906 1.56583,-0.238252 1.49459,-0.735238 -0.0439,-0.306408 -0.38056,-0.70073 -0.74806,-0.876273 -0.74582,-0.356251 -6.53013,-1.098587 -9.38598,-1.204561 l -1.85208,-0.06873 0.98891,-0.661458 c 0.5439,-0.363802 0.99039,-0.860658 0.99219,-1.104128 0.002,-0.243467 0.36046,-0.799854 0.79702,-1.236416 0.69218,-0.692177 0.79375,-0.982578 0.79375,-2.269313 0,-1.29917 0.0633,-1.47556 0.52917,-1.47556 0.4391,0 0.52917,-0.17639 0.52917,-1.036286 0,-0.581067 0.14528,-1.095234 0.33073,-1.170482 0.25124,-0.101944 0.23828,-0.198493 -0.0539,-0.401714 -0.32959,-0.229227 -0.33266,-0.364662 -0.0214,-0.946185 0.19976,-0.373266 0.53471,-0.678666 0.74432,-0.678666 0.27943,0 0.3524,-0.245954 0.27349,-0.921864 -0.0592,-0.507027 -0.0272,-0.953511 0.0712,-0.992188 0.0983,-0.03868 0.25903,-0.442547 0.3571,-0.897488 0.12575,-0.583414 0.0573,-0.94819 -0.23241,-1.237871 -0.2259,-0.225896 -0.41071,-0.585722 -0.41071,-0.799621 0,-0.592971 -1.33585,-3.005559 -3.34473,-6.040705 -2.18919,-3.307482 -6.762136,-8.030962 -9.623946,-9.940679 -4.20924,-2.808875 -9.12909,-4.851457 -14.12618,-5.864785 -1.89114,-0.383493 -2.76141,-0.456225 -3.12576,-0.261232 -0.35037,0.187511 -0.61235,0.181089 -0.85582,-0.02098 -0.50894,-0.422377 -3.52368,-1.569764 -3.68932,-1.404125 -0.0772,0.07721 -0.54958,-0.05379 -1.04972,-0.291124 -1.15581,-0.548465 -3.84723,-0.573936 -4.54912,-0.04305 -0.28247,0.213653 -0.79094,0.392247 -1.12992,0.396875 -0.33898,0.0046 -1.36559,0.308164 -2.28135,0.674524 -0.91575,0.36636 -1.84095,0.598595 -2.05599,0.516076 -0.61319,-0.235304 -5.43021,0.837423 -8.44688,1.881079 -7.2248,2.499513 -13.54412,7.153364 -18.29484,13.473194 -1.92583,2.561921 -4.5616,7.499821 -6.10678,11.440583 -0.99413,2.535378 -2.65032,8.532987 -2.95736,10.709561 -0.12949,0.917901 -0.31439,1.291966 -0.69896,1.414023 -0.28759,0.09128 -0.63934,0.499989 -0.78166,0.908244 -0.14231,0.408257 -0.48883,0.802449 -0.77002,0.875982 -0.42829,0.111998 -0.48535,0.03041 -0.35155,-0.502658 0.13754,-0.548032 0.0657,-0.63636 -0.51798,-0.63636 -1.27588,0 -2.0468,0.586441 -2.84215,2.162024 -0.67669,1.340517 -0.77416,1.826932 -0.79794,3.981993 -0.0198,1.793834 -0.0828,2.219754 -0.23391,1.581614 -0.24234,-1.02326 -0.39843,-1.225292 -0.76949,-0.99597 -0.47591,0.29412 -0.62391,1.94276 -0.29681,3.30626 0.26167,1.09074 0.24364,1.63898 -0.10418,3.16824 -0.45919,2.01888 -0.55389,5.22553 -0.17214,5.82882 0.18708,0.29565 0.32355,0.31082 0.6156,0.0684 0.462,-0.38342 0.72343,-0.15387 0.72343,0.63523 0,0.32916 0.17922,0.77769 0.39828,0.99674 0.33114,0.33114 0.35432,0.70227 0.13753,2.20171 -0.39256,2.71513 -0.34342,7.004591 0.0874,7.631541 0.26102,0.37983 0.40403,2.10638 0.52538,6.34273 0.0917,3.20146 0.27985,6.289034 0.41812,6.861274 0.16558,0.6853 0.15218,1.72389 -0.0393,3.0427 -0.26519,1.82688 -0.15013,5.02646 0.41926,11.65956 0.12886,1.50108 0.14647,1.54439 0.6991,1.71979 0.3822,0.12131 0.52996,0.40183 0.53202,1.01002 0.005,1.35055 2.62611,3.44609 7.20724,5.76112 l 3.76708,1.90366 3.4491,-0.16542 c 2.37323,-0.11381 4.31317,-0.38185 6.21923,-0.85928 2.66023,-0.66634 7.08743,-2.36472 8.39153,-3.2192 0.4058,-0.26589 0.71371,-0.31828 0.88193,-0.15006 0.47516,0.47515 1.0543,6.58944 0.97865,10.33205 l -0.0736,3.64336 -0.74627,0.0855 c -0.75002,0.0859 -1.32311,-0.0697 -3.15634,-0.85708 -0.5457,-0.23439 -0.99195,-0.33527 -0.99167,-0.22417 0.002,0.60437 7.45385,4.81388 8.54161,4.8248 0.4053,0.004 1.01431,-0.17437 1.35335,-0.39651 z m 28.36513,-3.45421 c -0.0883,-0.23017 -0.1606,-2.24814 -0.1606,-4.48436 0,-9.64842 2.2899,-19.06162 5.99501,-24.64391 2.95811,-4.4568 8.006846,-8.21037 12.044806,-8.954887 l 0.97419,-0.17962 0.42454,1.415127 c 0.48613,1.62044 0.70812,1.30089 -2.23194,3.21283 -5.161626,3.35661 -9.818046,9.83646 -11.541966,16.06168 -0.94295,3.40511 -1.19106,9.65856 -0.51549,12.99267 0.24649,1.21648 0.4687,2.33291 0.49378,2.48092 0.0544,0.32097 -4.18013,2.51807 -4.85316,2.51807 -0.25772,0 -0.54085,-0.18833 -0.62917,-0.41852 z m -24.19685,-1.83044 c 0.74564,-1.3514 0.75291,-1.35965 0.75291,-0.8526 0,0.23442 -0.30079,0.76028 -0.66842,1.16858 l -0.66841,0.74235 z m 24.99278,-24.73853 c 0.0961,-0.50933 0.56869,-2.29744 1.05016,-3.9736 1.67893,-5.84491 4.44361,-11.906744 7.35081,-16.117374 1.50411,-2.17847 5.403676,-6.371181 5.923536,-6.368851 0.33853,0.002 -0.008,0.6927 -4.572146,9.129621 -1.3384,2.47385 -3.04257,5.652677 -3.78704,7.064044 -3.04637,5.77535 -5.42145,10.16448 -5.77006,10.66302 -0.33888,0.48464 -0.35532,0.45124 -0.19526,-0.39686 z m -53.6401,-14.337654 c -0.2356,-0.19069 -0.93724,-1.12062 -1.5592,-2.06651 -2.13063,-3.24029 -2.23131,-3.28397 -5.48889,-2.38125 -1.05026,0.29104 -1.9706,0.52917 -2.0452,0.52917 -0.0746,0 -0.13564,-1.64412 -0.13564,-3.6536 0,-2.802871 0.0905,-3.773181 0.38846,-4.167191 0.46007,-0.60827 0.52265,-1.7456 0.1183,-2.14994 -0.15784,-0.15785 -0.24714,-0.55212 -0.19843,-0.87617 0.0743,-0.49443 0.3013,-0.29801 1.41146,1.22128 0.7276,0.99575 1.43041,2.02106 1.56178,2.27845 0.29107,0.57027 0.95176,0.61964 0.95176,0.0711 0,-0.58529 0.55627,-0.48267 0.71709,0.13229 0.10841,0.41457 0.36089,0.52916 1.16585,0.52916 0.73692,0 1.02748,0.11224 1.02748,0.39688 0,0.28663 0.29398,0.39687 1.05833,0.39687 0.58208,0 1.05833,0.11907 1.05833,0.26459 0,0.14552 0.47625,0.26458 1.05834,0.26458 0.76435,0 1.05833,0.11025 1.05833,0.39688 0,0.46658 0.47664,0.50434 1.49226,0.1182 0.43474,-0.16529 1.16839,-0.19578 1.80316,-0.075 l 1.07021,0.20372 -1.19063,0.1675 -1.19062,0.16751 1.12447,0.0397 c 0.61847,0.0219 1.12448,0.158801 1.12448,0.304321 0,0.14552 0.34261,0.26458 0.76136,0.26458 0.41874,0 0.91087,0.18017 1.09363,0.40037 0.18275,0.2202 0.51873,0.36903 0.74663,0.33073 0.44256,-0.0744 2.60016,2.83732 3.92316,5.29433 0.55964,1.03934 0.66833,1.44737 0.4261,1.59968 -0.17884,0.11245 -3.1554,0.23594 -6.61458,0.27441 -4.87576,0.0542 -6.3857,-0.008 -6.71778,-0.27676 z m 75.706326,-3.48673 c 0.002,-0.16476 1.18844,-2.48393 2.63609,-5.153701 1.44764,-2.66977 2.70457,-5.08251 2.79316,-5.36165 0.42768,-1.3475 0.65215,0.21204 0.65215,4.53086 v 4.734901 l -0.99218,0.16034 c -0.54571,0.0882 -1.91493,0.43674 -3.04271,0.77458 -1.33815,0.40085 -2.04913,0.51017 -2.04651,0.31467 z M 19.814364,78.905525 c -0.11833,-0.0731 -0.0647,-0.72799 0.11921,-1.45526 0.35725,-1.41287 0.94311,-1.78734 1.77392,-1.13384 0.33747,0.26545 0.39549,0.59822 0.26266,1.50646 -0.16158,1.10481 -0.21675,1.16704 -1.05558,1.19067 -0.4868,0.0137 -0.98189,-0.0349 -1.10021,-0.10803 z m 97.807626,0.0667 c -0.0662,-0.10914 -0.16252,-0.73152 -0.21406,-1.38305 -0.085,-1.07464 -0.0257,-1.21745 0.63907,-1.53827 0.40303,-0.19451 0.66389,-0.4651 0.5797,-0.60132 -0.23079,-0.37344 -0.80928,-0.29769 -1.18513,0.15517 -0.20397,0.24577 -0.53902,0.33789 -0.85928,0.23624 -0.34197,-0.10854 -0.46316,-0.0666 -0.34768,0.12021 0.0975,0.15776 0.0303,0.79559 -0.14935,1.41741 l -0.32662,1.13059 -0.16082,-1.26053 c -0.0884,-0.69329 -0.11583,-1.64588 -0.0609,-2.11688 0.0978,-0.83728 0.12589,-0.8543 1.26336,-0.76383 l 1.1634,0.0925 0.32074,-1.19925 c 0.27752,-1.03761 0.38531,-1.16469 0.79974,-0.94289 0.52468,0.2808 0.63406,1.38288 0.2401,2.4191 -0.22077,0.58065 -0.10406,1.26523 0.65428,3.83789 0.16388,0.55595 0.0957,0.59532 -1.03038,0.59532 -0.66323,0 -1.26003,-0.0893 -1.32623,-0.19844 z m -95.395756,-3.40888 c -0.49668,-0.34789 -0.79236,-0.37856 -1.51408,-0.15705 -1.03258,0.3169 -1.03755,0.30274 -0.474,-1.35118 l 0.42288,-1.24107 0.56931,1.12779 c 0.3761,0.74503 0.77135,1.15648 1.16463,1.21233 0.32742,0.0465 0.59531,0.25486 0.59531,0.46302 0,0.47275 -0.0136,0.47179 -0.76405,-0.0538 z m 4.46822,-5.19609 v -1.41409 c 0,-1.25088 0.0687,-1.42936 0.59531,-1.54636 19.03667,-2.915759 18.021,5.078203 -0.59531,2.96045 z m 79.842876,0.29215 c 0.17923,-0.17923 0.32587,-0.82615 0.32587,-1.43759 0,-0.96084 -0.11404,-1.18393 -0.8402,-1.6437 l -0.84019,-0.53198 1.26329,-0.18944 c 0.69482,-0.10419 2.47189,-0.0849 3.94905,0.043 l 2.68575,0.23241 v 1.85209 1.85208 l -3.43471,0.0745 c -2.72042,0.059 -3.36695,0.007 -3.10886,-0.25135 z M 21.063524,65.189718 c -0.53427,-0.318484 -0.71567,-0.615164 -0.66146,-1.081823 0.0625,-0.53821 0.29026,-0.690499 1.3976,-0.934503 0.7276,-0.160329 1.53127,-0.249206 1.78593,-0.197501 0.5216,0.1059 0.60833,0.961499 0.20499,2.022356 -0.2078,0.546555 -0.42672,0.673973 -1.12448,0.654492 -0.47654,-0.01331 -1.19771,-0.221662 -1.60258,-0.463021 z m 53.78509,-3.691249 c 0,-0.155882 0.3438,-0.528225 0.76399,-0.827429 0.66917,-0.476488 0.80455,-0.495144 1.09073,-0.15031 0.23709,0.285676 0.95307,0.405723 2.60945,0.43752 l 2.28271,0.04382 -1.98438,0.183411 c -1.0914,0.100875 -2.60945,0.276334 -3.37343,0.389909 -0.93972,0.139697 -1.38907,0.114813 -1.38907,-0.07692 z m -13.36145,-0.319456 -0.79375,-0.201975 0.86348,-0.03131 c 0.47492,-0.01722 1.09865,-0.178168 1.38608,-0.357667 0.44357,-0.277018 0.61194,-0.237013 1.11354,0.264584 l 0.59094,0.590947 -1.18327,-0.0313 c -0.6508,-0.01722 -1.54046,-0.122195 -1.97702,-0.233281 z m -22.81528,-0.447937 c 0.25743,-0.06708 0.61462,-0.06267 0.79375,0.0098 0.17913,0.07248 -0.0315,0.127363 -0.46806,0.121971 -0.43656,-0.0054 -0.58312,-0.06469 -0.32569,-0.131773 z m 29.63191,-3.717602 c -1.87292,-0.07656 -2.21991,-0.165139 -2.46883,-0.630264 -0.38588,-0.721016 -0.0763,-0.990364 0.39574,-0.344257 0.31531,0.431633 0.77153,0.52319 2.97382,0.596799 3.08876,0.103238 4.05659,-0.172169 4.05659,-1.154348 0,-0.388371 0.11427,-0.612997 0.26459,-0.520099 0.43155,0.266713 0.30164,1.339652 -0.21927,1.811076 -0.32207,0.291462 -0.87502,0.419875 -1.65365,0.384026 -0.64338,-0.02962 -2.15043,-0.09394 -3.34899,-0.142933 z m 9.74071,-0.486717 c 0.0127,-0.308226 0.0754,-0.370919 0.15985,-0.159853 0.0764,0.190995 0.067,0.419198 -0.0209,0.507119 -0.0879,0.08792 -0.15046,-0.06835 -0.13897,-0.347266 z"
       style="fill:#070707;stroke-width:0.26458332"
       sodipodi:nodetypes="ccccccsccccscccsscssssccccsccccccccscccccccscccscsccccccccccscccscccscccccccscccccscsccscccccccccccsccssscccsccccscsssccccccsscccccccsscccccccscccccccccsccccccccccccccscccsccccsccsccccssccccccccsscccccscssssssccccccssccccccccccscccccccccccccccccccccccccccsccccccccscccscccscccccccccccccccccsccscscsccccccccccccccsccsscccsccccc" />
  </g>
</svg>
